<?xml version="1.0" encoding="utf-8"?>
<!-- Generator: Adobe Illustrator 23.0.3, SVG Export Plug-In . SVG Version: 6.00 Build 0)  -->
<svg version="1.1" id="Layer_1" xmlns="http://www.w3.org/2000/svg" xmlns:xlink="http://www.w3.org/1999/xlink" x="0px" y="0px"
	 viewBox="0 0 210 60" style="enable-background:new 0 0 210 60;" xml:space="preserve">
<style type="text/css">
	.st0{fill:#FFFFFF;}
	.st1{fill-rule:evenodd;clip-rule:evenodd;fill:#FFFFFF;}
</style>
<g>
	<path id="path8" class="st1" d="M127.9,46.1c-11,8.1-27,12.5-40.8,12.5c-19.3,0-36.7-7.1-49.9-19c-1-0.9-0.1-2.2,1.1-1.5
		c14.2,8.3,31.8,13.2,49.9,13.2c12.2,0,25.7-2.5,38.1-7.8C128.1,42.8,129.7,44.8,127.9,46.1"/>
	<path id="path10" class="st1" d="M132.5,40.9c-1.4-1.8-9.3-0.9-12.9-0.4c-1.1,0.1-1.2-0.8-0.3-1.5c6.3-4.4,16.7-3.2,17.9-1.7
		c1.2,1.5-0.3,11.9-6.2,16.8c-0.9,0.8-1.8,0.4-1.4-0.7C130.9,50.2,133.9,42.7,132.5,40.9"/>
	<path id="path12" class="st1" d="M119.8,7.6V3.3c0-0.7,0.5-1.1,1.1-1.1h19.3c0.6,0,1.1,0.4,1.1,1.1V7c0,0.6-0.5,1.4-1.5,2.7
		l-10,14.3c3.7-0.1,7.7,0.5,11,2.4c0.8,0.4,1,1.1,1,1.7v4.6c0,0.6-0.7,1.4-1.4,1c-5.9-3.1-13.8-3.5-20.4,0c-0.7,0.4-1.4-0.4-1.4-1
		v-4.4c0-0.7,0-1.9,0.7-3L131,8.7h-10.1C120.3,8.7,119.8,8.3,119.8,7.6"/>
	<path id="path14" class="st1" d="M49.3,34.6h-5.9c-0.6,0-1-0.5-1.1-1V3.4c0-0.6,0.5-1.1,1.1-1.1H49c0.6,0,1,0.5,1.1,1v3.9h0.1
		c1.4-3.8,4.1-5.6,7.7-5.6c3.7,0,6,1.8,7.6,5.6c1.4-3.8,4.7-5.6,8.1-5.6c2.5,0,5.2,1,6.8,3.3c1.9,2.5,1.5,6.2,1.5,9.5l0,19
		c0,0.6-0.5,1.1-1.1,1.1h-5.9c-0.6,0-1.1-0.5-1.1-1.1v-16c0-1.3,0.1-4.4-0.2-5.7c-0.4-2-1.8-2.6-3.5-2.6c-1.4,0-2.9,1-3.5,2.5
		c-0.6,1.5-0.5,4.1-0.5,5.8v16c0,0.6-0.5,1.1-1.1,1.1h-5.9c-0.6,0-1.1-0.5-1.1-1.1l0-16c0-3.4,0.6-8.3-3.6-8.3
		c-4.2,0-4.1,4.8-4.1,8.3v16C50.5,34.1,49.9,34.6,49.3,34.6"/>
	<path id="path16" class="st1" d="M158,1.7c8.7,0,13.4,7.5,13.4,17c0,9.2-5.2,16.5-13.4,16.5c-8.6,0-13.2-7.5-13.2-16.8
		C144.8,9,149.5,1.7,158,1.7 M158.1,7.8c-4.3,0-4.6,5.9-4.6,9.6c0,3.7-0.1,11.6,4.6,11.6c4.6,0,4.8-6.4,4.8-10.2
		c0-2.5-0.1-5.6-0.9-8C161.2,8.6,159.9,7.8,158.1,7.8"/>
	<path id="path18" class="st1" d="M182.8,34.6h-5.9c-0.6,0-1.1-0.5-1.1-1.1l0-30.2c0-0.6,0.5-1,1.1-1h5.5c0.5,0,0.9,0.4,1.1,0.8v4.6
		h0.1c1.6-4.1,4-6.1,8-6.1c2.6,0,5.2,1,6.9,3.6c1.5,2.4,1.5,6.5,1.5,9.4v19c-0.1,0.5-0.6,1-1.1,1H193c-0.5,0-1-0.4-1-1V17.2
		c0-3.3,0.4-8.1-3.7-8.1c-1.4,0-2.7,1-3.4,2.4c-0.8,1.8-0.9,3.7-0.9,5.7v16.3C183.9,34.1,183.4,34.6,182.8,34.6"/>
	<path id="path28" class="st1" d="M104.4,20.1c0,2.3,0.1,4.2-1.1,6.2c-0.9,1.7-2.4,2.7-4.1,2.7c-2.3,0-3.6-1.7-3.6-4.3
		c0-5,4.5-5.9,8.8-5.9L104.4,20.1 M110.3,34.5c-0.4,0.3-1,0.4-1.4,0.1c-2-1.6-2.3-2.4-3.4-3.9c-3.2,3.3-5.5,4.3-9.7,4.3
		c-5,0-8.8-3.1-8.8-9.2c0-4.8,2.6-8,6.3-9.6c3.2-1.4,7.7-1.7,11.1-2v-0.8c0-1.4,0.1-3.1-0.7-4.3c-0.7-1.1-2.1-1.5-3.3-1.5
		c-2.2,0-4.2,1.1-4.7,3.5c-0.1,0.5-0.5,1.1-1,1.1L89,11.6c-0.5-0.1-1-0.5-0.9-1.2c1.3-6.9,7.6-9,13.2-9c2.9,0,6.6,0.8,8.9,2.9
		c2.9,2.7,2.6,6.2,2.6,10.1v9.2c0,2.8,1.1,4,2.2,5.5c0.4,0.5,0.5,1.2,0,1.6C113.7,31.6,111.5,33.5,110.3,34.5L110.3,34.5"/>
	<path id="path30" class="st1" d="M27.3,20.1c0,2.3,0.1,4.2-1.1,6.2c-0.9,1.7-2.4,2.7-4.1,2.7c-2.3,0-3.6-1.7-3.6-4.3
		c0-5,4.5-5.9,8.7-5.9V20.1 M33.3,34.5c-0.4,0.3-1,0.4-1.4,0.1c-2-1.6-2.3-2.4-3.4-3.9C25.3,34,23,35,18.8,35
		c-4.9,0-8.8-3.1-8.8-9.2c0-4.8,2.6-8,6.3-9.6c3.2-1.4,7.7-1.7,11.1-2v-0.8c0-1.4,0.1-3.1-0.7-4.3c-0.7-1.1-2.1-1.5-3.3-1.5
		c-2.2,0-4.2,1.1-4.7,3.5c-0.1,0.5-0.5,1.1-1,1.1l-5.7-0.6c-0.5-0.1-1-0.5-0.9-1.2c1.3-6.9,7.6-9,13.2-9c2.9,0,6.6,0.8,8.9,2.9
		c2.9,2.7,2.6,6.2,2.6,10.1v9.2c0,2.8,1.1,4,2.2,5.5c0.4,0.5,0.5,1.2,0,1.6C36.6,31.6,34.4,33.5,33.3,34.5L33.3,34.5"/>
</g>
</svg>
