<?xml version="1.0" encoding="utf-8"?>
<!-- Generator: Adobe Illustrator 22.0.1, SVG Export Plug-In . SVG Version: 6.00 Build 0)  -->
<svg version="1.1" id="Layer_1" xmlns="http://www.w3.org/2000/svg" xmlns:xlink="http://www.w3.org/1999/xlink" x="0px" y="0px"
	 viewBox="0 0 255.3 25" style="enable-background:new 0 0 255.3 25;" xml:space="preserve">
<style type="text/css">
	.st0{fill:#AAB7C4;}
	.st1{opacity:0.5;fill:#AAB7C4;enable-background:new    ;}
	.st2{opacity:0.75;fill:#AAB7C4;enable-background:new    ;}
</style>
<g>
	<path class="st0" d="M21.4,6l-2.8,13h-3.4L18,6H21.4z M35.5,14.4l1.8-4.9l1,4.9H35.5z M39.3,19h3.1L39.7,6h-2.9
		c-0.6,0-1.2,0.4-1.4,1l-5,12h3.5l0.7-1.9h4.3L39.3,19z M30.5,14.7c0-3.4-4.7-3.6-4.7-5.1c0.1-0.7,0.7-1.1,1.4-1.1
		c1.1-0.1,2.3,0.1,3.3,0.6l0.6-2.8c-1-0.4-2.1-0.6-3.1-0.6c-3.3,0-5.7,1.8-5.7,4.3c0,1.9,1.7,2.9,2.9,3.5c1.3,0.6,1.8,1,1.7,1.6
		c0,0.9-1,1.3-2,1.3c-1.2,0-2.4-0.3-3.5-0.8l-0.6,2.8c1.2,0.5,2.5,0.7,3.7,0.7C28.2,19.2,30.5,17.4,30.5,14.7 M16.6,6l-5.4,13H7.6
		L4.9,8.6c0-0.5-0.4-0.9-0.8-1.1C3.1,7,2,6.6,0.8,6.4L0.9,6h5.7C7.4,6,8,6.6,8.1,7.3l1.4,7.5L13.1,6H16.6z"/>
	<path class="st0" d="M146.2,8h-2.5v8.9h2.5c1.1,0.1,2.2-0.3,3.1-1c1-0.9,1.6-2.1,1.6-3.4c0.1-2.4-1.8-4.4-4.2-4.5H146.2z
		 M148.2,14.7c-0.6,0.5-1.5,0.8-2.3,0.7h-0.5V9.5h0.5c0.8-0.1,1.7,0.2,2.3,0.7c0.6,0.6,0.9,1.4,0.9,2.2
		C149.1,13.3,148.8,14.1,148.2,14.7z M151.6,16.9h1.7V8h-1.7V16.9z M157.4,11.4c-1-0.4-1.3-0.6-1.3-1.1c0.1-0.6,0.6-1.1,1.2-1
		c0.5,0,1,0.3,1.4,0.7l0.9-1.2c-0.7-0.6-1.6-1-2.5-1c-1.4-0.1-2.6,1-2.7,2.4v0.1c0,1.2,0.5,1.9,2.1,2.4c0.4,0.1,0.8,0.3,1.2,0.5
		c0.3,0.2,0.5,0.5,0.5,0.9c0,0.7-0.6,1.3-1.2,1.3h-0.1c-0.8,0-1.5-0.5-1.8-1.2l-1.1,1.1c0.6,1.1,1.8,1.7,3,1.7
		c1.6,0.1,2.9-1.1,3-2.7V14C159.9,12.8,159.4,12.2,157.4,11.4z M160.5,12.5c0,2.5,2,4.6,4.5,4.6c0.8,0,1.5-0.2,2.2-0.5v-2
		c-0.5,0.6-1.2,1-2,1c-1.6,0-2.9-1.2-2.9-2.8v-0.2c-0.1-1.6,1.2-3,2.8-3.1c0.8,0,1.6,0.4,2.1,1v-2c-0.6-0.4-1.4-0.5-2.1-0.5
		C162.5,7.8,160.5,9.9,160.5,12.5z M180.8,14l-2.3-6h-1.8l3.7,9.1h0.9L185,8h-1.8L180.8,14L180.8,14z M185.8,16.9h4.8v-1.5h-3.1V13
		h3v-1.5h-3v-2h3.1V8h-4.8V16.9z M197.3,10.6c0-1.7-1.1-2.6-3.1-2.6h-2.5v8.9h1.7v-3.6h0.2l2.3,3.6h2.1l-2.7-3.7
		C196.5,13,197.4,11.9,197.3,10.6L197.3,10.6z M193.9,12.1h-0.5V9.4h0.5c1.1,0,1.6,0.5,1.6,1.3C195.5,11.6,195,12.1,193.9,12.1z"/>
	<path class="st1" d="M172.4,7.9c-2.5,0-4.6,2-4.6,4.6c0,2.5,2,4.6,4.6,4.7s4.6-2,4.7-4.6C177,10,175,7.9,172.4,7.9z"/>
	<g>
		<path class="st0" d="M82.9,10c-0.6,0-1.4,0.2-1.8,0.9c-0.3-0.5-0.9-0.9-1.7-0.9c-0.5,0-1.1,0.1-1.5,0.7v-0.6h-1.1V15h1.1v-2.7
			c0-0.8,0.6-1.3,1.3-1.3s1.1,0.5,1.1,1.3V15h1.1v-2.7c0-0.8,0.6-1.3,1.3-1.3s1.1,0.5,1.1,1.3V15h1.1v-3C84.9,10.8,84.1,10,82.9,10z
			 M89.8,10.8c-0.3-0.4-0.8-0.7-1.5-0.7c-1.4,0-2.4,1.1-2.4,2.6s1.1,2.6,2.4,2.6c0.7,0,1.2-0.3,1.5-0.7V15h1.1v-4.9h-1.1V10.8z
			 M88.4,14.2c-0.9,0-1.5-0.7-1.5-1.6s0.6-1.6,1.5-1.6s1.5,0.7,1.5,1.6S89.3,14.2,88.4,14.2z M94.6,12.1L94.1,12
			c-0.4-0.1-0.8-0.2-0.8-0.5s0.3-0.6,0.9-0.6s1.2,0.2,1.5,0.4l0.5-0.8c-0.5-0.3-1.2-0.5-2-0.5c-1.2,0-2,0.6-2,1.6
			c0,0.8,0.6,1.3,1.6,1.4l0.5,0.1c0.6,0.1,0.8,0.3,0.8,0.5c0,0.4-0.4,0.6-1.1,0.6c-0.8,0-1.3-0.2-1.6-0.5l-0.5,0.8
			c0.7,0.5,1.6,0.6,2.1,0.6c1.4,0,2.2-0.7,2.2-1.6C96.3,12.7,95.7,12.3,94.6,12.1z M100,14.2c-0.4,0-0.8-0.3-0.8-0.9v-2.1h1.9v-1
			h-1.9V8.7h-1.1v1.5h-1v1h1v2.1c0,1.3,0.6,1.9,1.7,1.9c0.6,0,1.1-0.2,1.5-0.5l-0.4-0.9C100.6,14,100.3,14.2,100,14.2z M104.4,10
			c-1.4,0-2.4,1-2.4,2.6s1,2.6,2.5,2.6c0.7,0,1.4-0.2,2-0.7l-0.5-0.8c-0.4,0.3-0.9,0.5-1.4,0.5c-0.7,0-1.3-0.4-1.4-1.2h3.6v-0.4
			C106.7,11.1,105.8,10,104.4,10z M103.1,12.2c0.1-0.7,0.5-1.2,1.3-1.2c0.7,0,1.1,0.4,1.2,1.2H103.1z M109,10.7v-0.6h-1.1V15h1.1
			v-2.7c0-0.8,0.5-1.3,1.2-1.3c0.3,0,0.6,0.1,0.8,0.2l0.3-1.1c-0.2-0.1-0.5-0.1-0.8-0.1C109.8,10,109.3,10.2,109,10.7z M114,11
			c0.5,0,0.8,0.2,1.2,0.5l0.7-0.7c-0.4-0.5-1.1-0.8-1.8-0.8c-1.5,0-2.6,1.1-2.6,2.6s1,2.6,2.6,2.6c0.7,0,1.4-0.3,1.8-0.8l-0.7-0.7
			c-0.3,0.3-0.7,0.5-1.2,0.5c-0.8,0-1.4-0.6-1.4-1.6S113.2,11,114,11z M120.4,10.8c-0.3-0.4-0.8-0.7-1.5-0.7c-1.4,0-2.4,1.1-2.4,2.6
			s1.1,2.6,2.4,2.6c0.7,0,1.2-0.3,1.5-0.7V15h1.1v-4.9h-1.1V10.8z M119,14.2c-0.9,0-1.5-0.7-1.5-1.6s0.6-1.6,1.5-1.6
			s1.5,0.7,1.5,1.6S119.9,14.2,119,14.2z M124.1,10.7v-0.6H123V15h1.1v-2.7c0-0.8,0.5-1.3,1.2-1.3c0.3,0,0.6,0.1,0.8,0.2l0.3-1.1
			c-0.2-0.1-0.5-0.1-0.8-0.1C124.9,10,124.4,10.2,124.1,10.7z M130.5,7.7v3c-0.3-0.4-0.8-0.7-1.5-0.7c-1.4,0-2.4,1.1-2.4,2.6
			s1.1,2.6,2.4,2.6c0.7,0,1.2-0.3,1.5-0.7V15h1.1V7.7H130.5z M129.1,14.2c-0.9,0-1.5-0.7-1.5-1.6s0.6-1.6,1.5-1.6s1.5,0.7,1.5,1.6
			S130,14.2,129.1,14.2z M56.9,12.6c0-2.4,1.1-4.5,2.8-5.9c-1.3-1-2.9-1.6-4.6-1.6C51,5,47.7,8.4,47.7,12.6s3.3,7.6,7.4,7.6
			c1.7,0,3.3-0.6,4.6-1.6C58,17.1,56.9,15,56.9,12.6z"/>
		<path class="st1" d="M64.3,5c-1.7,0-3.3,0.6-4.6,1.6c1.7,1.4,2.8,3.5,2.8,5.9s-1.1,4.5-2.8,5.9c1.3,1,2.9,1.6,4.6,1.6
			c4.1,0,7.4-3.4,7.4-7.5S68.4,5,64.3,5z"/>
		<path class="st2" d="M62.5,12.6c0-2.4-1.1-4.5-2.8-5.9c-1.7,1.4-3.8,3.5-3.8,5.9s2,4.5,3.8,5.9C61.4,17.1,62.5,15,62.5,12.6z"/>
	</g>
</g>
</svg>
